<svg id="svg" version="1.1" xmlns="http://www.w3.org/2000/svg" xmlns:xlink="http://www.w3.org/1999/xlink" width="400" height="400" viewBox="0, 0, 400,400"><g id="svgg"><path id="path0" d="M179.792 43.292 L 179.750 77.250 126.083 77.250 L 72.417 77.250 72.374 66.625 L 72.331 56.000 71.902 56.000 C 71.656 56.000,71.160 56.257,70.738 56.602 L 70.003 57.205 69.960 67.227 L 69.917 77.250 60.403 77.293 L 50.889 77.336 50.028 78.398 C 49.554 78.982,49.167 79.506,49.167 79.563 C 49.167 79.620,53.854 79.667,59.583 79.667 L 70.000 79.667 70.000 127.417 L 70.000 175.167 39.272 175.167 L 8.544 175.167 8.440 175.792 C 8.383 176.135,8.336 176.698,8.335 177.042 L 8.333 177.667 39.167 177.667 L 70.000 177.667 70.000 225.417 L 70.000 273.167 45.649 273.167 C 22.524 273.167,21.304 273.181,21.415 273.458 C 21.480 273.619,21.685 274.143,21.872 274.624 L 22.212 275.499 46.065 275.541 L 69.917 275.583 69.960 285.208 C 69.983 290.502,69.969 294.833,69.929 294.833 C 69.846 294.833,57.272 287.258,56.755 286.896 C 56.574 286.770,56.336 286.667,56.226 286.667 C 56.054 286.667,52.110 290.915,44.022 299.815 C 42.888 301.063,41.463 302.610,40.855 303.254 C 40.247 303.898,39.459 304.736,39.103 305.117 L 38.456 305.809 39.787 307.779 C 42.220 311.382,45.655 316.150,46.033 316.450 C 46.245 316.618,46.844 315.988,56.637 305.295 C 57.583 304.262,58.433 303.390,58.526 303.356 C 58.619 303.323,61.236 304.823,64.342 306.690 L 69.990 310.083 69.996 326.417 L 70.003 342.750 71.168 343.803 L 72.333 344.855 72.333 328.261 C 72.333 319.134,72.377 311.667,72.430 311.667 C 72.557 311.667,73.397 312.166,79.583 315.913 C 84.942 319.160,86.322 319.994,92.333 323.624 C 94.304 324.814,98.429 327.307,101.500 329.164 C 112.639 335.903,113.691 336.531,113.734 336.474 C 113.774 336.422,114.451 334.880,115.918 331.500 C 116.216 330.813,116.836 329.387,117.296 328.333 C 117.755 327.279,118.583 325.367,119.135 324.083 C 120.064 321.922,122.761 315.696,124.116 312.583 C 124.435 311.850,125.021 310.500,125.417 309.583 C 125.813 308.667,126.561 306.942,127.080 305.750 C 127.598 304.558,128.573 302.308,129.247 300.750 C 129.921 299.192,130.898 296.942,131.418 295.750 C 131.939 294.558,132.536 293.171,132.747 292.667 C 133.682 290.424,134.869 287.740,134.976 287.629 C 135.040 287.563,135.840 287.966,136.754 288.526 C 137.669 289.086,138.792 289.768,139.250 290.042 C 139.708 290.316,142.108 291.779,144.583 293.294 C 155.368 299.896,156.362 300.513,157.189 301.109 C 158.221 301.854,158.109 301.908,159.777 299.875 C 160.585 298.890,161.998 297.177,162.915 296.069 C 165.199 293.310,168.731 289.023,174.573 281.917 C 177.287 278.617,179.580 275.892,179.670 275.861 C 179.776 275.825,179.833 296.014,179.833 333.883 L 179.833 391.961 180.208 392.062 C 180.415 392.117,180.939 392.163,181.375 392.164 L 182.166 392.167 182.208 333.875 L 182.250 275.583 229.958 275.541 L 277.667 275.499 277.667 326.083 C 277.667 366.439,277.709 376.667,277.875 376.667 C 277.990 376.666,278.552 376.445,279.125 376.174 L 280.167 375.681 280.167 325.590 L 280.167 275.500 328.988 275.500 L 377.809 275.500 378.140 274.625 C 378.322 274.144,378.523 273.619,378.587 273.458 C 378.697 273.181,376.289 273.167,329.434 273.167 L 280.167 273.167 280.167 225.417 L 280.167 177.667 335.917 177.667 L 391.667 177.667 391.664 176.792 C 391.663 176.310,391.617 175.748,391.562 175.542 L 391.461 175.167 335.814 175.167 L 280.167 175.167 280.167 166.066 C 280.167 157.466,280.183 156.971,280.458 157.076 C 280.738 157.183,281.590 157.654,288.469 161.496 C 290.148 162.433,291.559 163.163,291.606 163.117 C 291.652 163.070,291.611 157.269,291.515 150.225 C 291.419 143.180,291.260 131.154,291.163 123.500 C 291.066 115.846,290.946 109.122,290.898 108.558 L 290.810 107.532 288.947 108.656 C 285.823 110.541,280.440 113.747,280.299 113.806 C 280.226 113.836,280.167 106.167,280.167 96.764 L 280.167 79.667 315.500 79.667 C 334.933 79.667,350.833 79.620,350.833 79.563 C 350.833 79.506,350.445 78.981,349.971 78.396 L 349.108 77.333 314.638 77.333 L 280.167 77.333 280.167 50.826 L 280.167 24.319 279.125 23.826 C 278.552 23.555,277.990 23.334,277.875 23.333 C 277.709 23.333,277.667 28.844,277.667 50.333 L 277.667 77.333 229.917 77.333 L 182.167 77.333 182.167 43.333 L 182.167 9.333 181.000 9.333 L 179.834 9.333 179.792 43.292 M179.833 127.417 L 179.833 175.167 126.083 175.167 L 72.333 175.167 72.333 127.528 C 72.333 101.326,72.383 79.839,72.444 79.778 C 72.506 79.717,96.693 79.667,126.194 79.667 L 179.833 79.667 179.833 127.417 M277.660 97.542 L 277.653 115.417 274.701 117.160 C 273.078 118.118,270.287 119.774,268.500 120.839 C 266.712 121.905,262.813 124.227,259.833 126.000 C 256.854 127.774,253.517 129.763,252.417 130.420 C 251.317 131.077,248.743 132.612,246.698 133.830 L 242.980 136.045 243.615 136.409 C 244.420 136.870,246.465 138.016,250.167 140.081 C 252.918 141.616,253.652 142.028,256.917 143.870 C 257.650 144.284,258.962 145.019,259.833 145.505 C 262.666 147.083,262.833 147.180,262.833 147.243 C 262.833 147.277,262.283 148.380,261.609 149.694 C 260.936 151.008,257.780 157.277,254.596 163.625 L 248.806 175.167 215.486 175.167 L 182.167 175.167 182.167 127.417 L 182.167 79.667 229.917 79.667 L 277.667 79.667 277.660 97.542 M276.019 154.551 L 277.583 155.435 277.626 165.301 L 277.669 175.167 270.495 175.167 L 263.321 175.167 268.056 165.792 C 270.661 160.635,273.102 155.798,273.481 155.042 C 274.298 153.412,274.080 153.454,276.019 154.551 M179.831 216.375 L 179.829 255.083 174.815 261.167 C 172.057 264.512,168.710 268.581,167.377 270.208 L 164.954 273.167 152.012 273.167 L 139.069 273.167 137.160 271.866 C 132.366 268.601,129.954 267.000,129.831 267.000 C 129.758 267.000,129.469 267.544,129.190 268.208 C 128.911 268.873,128.316 270.242,127.868 271.250 L 127.054 273.083 99.736 273.083 L 72.417 273.083 72.375 225.375 L 72.333 177.667 126.083 177.667 L 179.833 177.667 179.831 216.375 M238.156 196.292 C 225.222 222.010,220.648 231.061,220.506 231.216 C 220.439 231.289,219.754 231.197,218.984 231.011 C 217.657 230.690,214.951 230.079,210.083 229.000 C 208.892 228.736,206.904 228.289,205.667 228.006 C 204.429 227.724,203.253 227.457,203.053 227.413 C 202.678 227.330,201.908 228.213,195.051 236.583 C 193.850 238.050,190.977 241.537,188.667 244.333 C 186.358 247.129,184.006 249.995,183.442 250.702 C 182.878 251.409,182.360 251.990,182.292 251.994 C 182.223 251.997,182.167 235.275,182.167 214.833 L 182.167 177.667 214.844 177.667 L 247.522 177.667 238.156 196.292 M277.667 225.417 L 277.667 273.167 229.917 273.167 C 191.826 273.167,182.168 273.125,182.171 272.958 C 182.176 272.682,182.394 272.407,187.688 265.982 C 194.298 257.962,196.523 255.258,198.660 252.652 C 204.521 245.503,204.820 245.167,205.309 245.167 C 205.563 245.167,206.591 245.275,207.594 245.407 C 208.596 245.539,210.542 245.767,211.917 245.913 C 213.292 246.060,216.854 246.472,219.833 246.829 C 228.065 247.817,227.230 247.774,227.488 247.221 C 227.609 246.962,228.154 245.737,228.701 244.500 C 230.152 241.212,231.556 238.248,233.005 235.417 C 233.708 234.042,238.470 224.592,243.586 214.417 C 248.702 204.242,254.957 191.811,257.486 186.794 L 262.083 177.671 269.875 177.669 L 277.667 177.667 277.667 225.417 M125.875 275.598 C 125.929 275.651,125.746 276.195,125.469 276.806 C 125.191 277.417,124.757 278.404,124.503 279.000 C 123.933 280.341,122.825 282.904,121.586 285.750 C 121.067 286.942,120.091 289.192,119.418 290.750 C 118.745 292.308,117.767 294.558,117.245 295.750 C 116.723 296.942,116.089 298.404,115.835 299.000 C 115.582 299.596,114.605 301.846,113.664 304.000 C 112.723 306.154,111.633 308.667,111.243 309.583 C 109.607 313.423,107.798 317.588,107.739 317.648 C 107.705 317.683,107.243 317.450,106.714 317.130 C 105.027 316.112,93.008 308.844,90.583 307.376 C 89.300 306.599,86.787 305.081,85.000 304.002 C 83.212 302.922,79.987 300.969,77.833 299.662 C 75.679 298.354,73.579 297.084,73.167 296.839 L 72.417 296.393 72.373 286.155 C 72.350 280.524,72.366 275.823,72.410 275.708 C 72.493 275.491,125.659 275.381,125.875 275.598 M162.727 275.630 C 162.772 275.702,162.346 276.320,161.782 277.005 C 159.256 280.073,155.934 284.097,155.815 284.233 C 155.743 284.316,154.770 283.763,153.634 282.995 C 152.506 282.232,150.308 280.747,148.750 279.694 C 147.192 278.640,145.260 277.335,144.458 276.792 C 143.656 276.250,143.000 275.737,143.000 275.653 C 143.000 275.465,162.612 275.443,162.727 275.630 " stroke="none" fill="#fbfbfb" fill-rule="evenodd"></path><path id="path1" d="M188.333 0.117 C 185.058 0.315,178.806 0.936,172.667 1.674 C 169.760 2.023,161.476 3.472,159.333 4.005 C 158.646 4.176,157.708 4.365,157.250 4.425 C 156.792 4.485,155.272 4.827,153.873 5.185 C 152.475 5.543,151.063 5.878,150.736 5.930 C 150.409 5.982,149.159 6.319,147.959 6.679 C 146.759 7.039,145.661 7.333,145.519 7.333 C 145.221 7.333,141.219 8.561,138.667 9.436 C 137.704 9.766,136.396 10.182,135.759 10.361 C 135.122 10.540,133.977 10.944,133.215 11.260 C 132.453 11.575,131.726 11.833,131.600 11.833 C 131.474 11.833,130.556 12.170,129.560 12.582 C 128.565 12.994,127.660 13.332,127.551 13.332 C 127.441 13.333,126.797 13.586,126.120 13.895 C 125.442 14.203,124.595 14.550,124.236 14.666 C 123.877 14.781,122.983 15.154,122.250 15.496 C 121.517 15.837,120.654 16.202,120.333 16.308 C 120.013 16.414,119.229 16.763,118.593 17.083 C 117.956 17.404,117.371 17.667,117.291 17.667 C 117.211 17.667,115.772 18.342,114.092 19.167 C 112.413 19.992,110.990 20.667,110.930 20.667 C 110.871 20.667,110.227 21.004,109.500 21.417 C 108.773 21.829,108.102 22.167,108.009 22.167 C 107.915 22.167,107.369 22.454,106.795 22.804 C 106.220 23.155,105.492 23.531,105.177 23.640 C 104.863 23.748,104.488 23.942,104.344 24.070 C 104.201 24.197,103.596 24.544,103.000 24.841 C 102.404 25.138,101.804 25.472,101.667 25.584 C 101.529 25.696,100.817 26.110,100.083 26.505 C 99.350 26.899,98.518 27.396,98.234 27.611 C 97.951 27.825,97.666 28.000,97.601 28.000 C 97.537 28.000,97.056 28.281,96.534 28.624 C 96.011 28.967,95.434 29.309,95.252 29.383 C 94.954 29.505,94.436 29.834,92.021 31.434 C 91.620 31.699,91.058 32.061,90.771 32.236 C 90.484 32.412,89.537 33.037,88.667 33.625 C 85.816 35.550,84.380 36.551,83.053 37.538 C 82.470 37.971,81.850 38.402,81.676 38.495 C 81.502 38.588,81.230 38.796,81.073 38.957 C 80.915 39.118,80.505 39.438,80.162 39.667 C 79.238 40.283,76.778 42.180,76.565 42.441 C 76.463 42.565,76.313 42.668,76.232 42.669 C 76.150 42.670,75.768 42.952,75.383 43.294 C 74.997 43.636,74.216 44.292,73.648 44.750 C 72.577 45.613,68.286 49.226,67.430 49.985 C 64.938 52.197,59.590 57.280,57.608 59.320 C 54.889 62.120,53.435 63.643,52.500 64.672 C 51.996 65.226,51.321 65.964,51.000 66.312 C 49.796 67.616,46.375 71.630,44.750 73.648 C 44.292 74.216,43.636 74.997,43.294 75.383 C 42.952 75.768,42.670 76.150,42.669 76.232 C 42.668 76.313,42.565 76.463,42.441 76.565 C 42.180 76.778,40.283 79.238,39.667 80.162 C 39.438 80.505,39.118 80.915,38.957 81.073 C 38.796 81.230,38.588 81.502,38.495 81.676 C 38.402 81.850,37.971 82.470,37.538 83.053 C 36.551 84.380,35.550 85.816,33.625 88.667 C 33.037 89.537,32.412 90.484,32.236 90.771 C 32.061 91.058,31.699 91.620,31.434 92.021 C 29.834 94.436,29.505 94.954,29.383 95.252 C 29.309 95.434,28.967 96.011,28.624 96.534 C 28.281 97.056,28.000 97.537,28.000 97.601 C 28.000 97.666,27.825 97.951,27.611 98.234 C 27.396 98.518,26.901 99.340,26.509 100.061 C 26.117 100.783,25.617 101.637,25.398 101.960 C 25.179 102.282,25.000 102.612,25.000 102.693 C 25.000 102.773,24.705 103.324,24.346 103.917 C 23.986 104.509,23.638 105.160,23.574 105.362 C 23.510 105.565,23.167 106.205,22.812 106.785 C 22.457 107.365,22.167 107.915,22.167 108.009 C 22.167 108.102,21.829 108.773,21.417 109.500 C 21.004 110.227,20.667 110.871,20.667 110.930 C 20.667 110.990,19.992 112.413,19.167 114.092 C 18.342 115.772,17.667 117.203,17.667 117.274 C 17.667 117.344,17.329 118.095,16.917 118.943 C 16.504 119.791,16.167 120.559,16.167 120.649 C 16.167 120.740,15.878 121.437,15.525 122.198 C 15.173 122.960,14.788 123.877,14.670 124.236 C 14.552 124.595,14.203 125.442,13.895 126.120 C 13.586 126.797,13.333 127.441,13.332 127.551 C 13.332 127.660,12.994 128.565,12.582 129.560 C 12.170 130.556,11.833 131.474,11.833 131.600 C 11.833 131.726,11.575 132.453,11.260 133.215 C 10.944 133.977,10.540 135.122,10.361 135.759 C 10.182 136.396,9.766 137.704,9.436 138.667 C 8.561 141.219,7.333 145.221,7.333 145.519 C 7.333 145.661,7.039 146.759,6.679 147.959 C 6.319 149.159,5.982 150.409,5.930 150.736 C 5.878 151.063,5.543 152.475,5.185 153.873 C 4.827 155.272,4.485 156.792,4.425 157.250 C 4.365 157.708,4.176 158.646,4.005 159.333 C 3.472 161.476,2.023 169.760,1.674 172.667 C 0.194 184.981,0.132 185.944,0.046 198.083 C -0.044 210.914,0.050 213.001,1.164 222.917 C 1.909 229.545,3.119 237.107,4.005 240.667 C 4.176 241.354,4.365 242.292,4.425 242.750 C 4.485 243.208,4.827 244.728,5.185 246.127 C 5.543 247.525,5.878 248.937,5.930 249.264 C 5.982 249.591,6.319 250.841,6.679 252.041 C 7.039 253.241,7.333 254.339,7.333 254.481 C 7.333 254.766,8.515 258.611,9.440 261.333 C 9.766 262.296,10.178 263.596,10.355 264.222 C 10.531 264.849,10.936 266.007,11.255 266.796 C 11.573 267.586,11.833 268.321,11.833 268.430 C 11.833 268.540,12.170 269.444,12.582 270.440 C 12.994 271.435,13.332 272.337,13.332 272.444 C 13.333 272.551,13.591 273.226,13.906 273.944 C 14.221 274.662,14.737 275.887,15.053 276.667 C 16.070 279.175,16.667 280.560,17.172 281.586 C 17.444 282.138,17.667 282.656,17.667 282.738 C 17.667 282.821,17.995 283.532,18.396 284.319 C 18.797 285.106,19.179 285.924,19.244 286.136 C 19.309 286.349,19.656 287.040,20.015 287.673 C 20.373 288.305,20.667 288.903,20.667 289.001 C 20.667 289.098,21.004 289.773,21.417 290.500 C 21.829 291.227,22.167 291.901,22.167 291.997 C 22.167 292.094,22.456 292.648,22.809 293.230 C 23.162 293.812,23.538 294.537,23.644 294.841 C 23.751 295.146,23.942 295.512,24.070 295.656 C 24.197 295.799,24.544 296.404,24.841 297.000 C 25.138 297.596,25.472 298.196,25.584 298.333 C 25.696 298.471,26.110 299.183,26.505 299.917 C 26.899 300.650,27.396 301.482,27.611 301.766 C 27.825 302.049,28.000 302.330,28.000 302.388 C 28.000 302.559,29.057 304.244,29.202 304.306 C 29.274 304.336,29.333 304.452,29.333 304.564 C 29.333 304.754,30.576 306.758,31.618 308.248 C 31.874 308.614,32.233 309.178,32.417 309.502 C 32.878 310.315,33.972 311.953,34.578 312.738 C 34.856 313.098,35.233 313.636,35.417 313.933 C 35.813 314.576,37.614 317.109,38.426 318.167 C 38.743 318.579,39.245 319.263,39.543 319.687 C 40.419 320.936,42.197 323.235,42.441 323.435 C 42.565 323.537,42.667 323.687,42.667 323.768 C 42.668 323.850,42.921 324.192,43.229 324.528 C 43.538 324.864,43.968 325.389,44.184 325.694 C 44.400 326.000,44.779 326.475,45.027 326.750 C 45.274 327.025,46.356 328.300,47.432 329.583 C 48.507 330.867,49.619 332.171,49.902 332.483 C 50.185 332.794,50.658 333.319,50.953 333.650 C 54.446 337.561,60.937 344.116,64.669 347.500 C 65.225 348.004,65.966 348.679,66.315 349.000 C 67.775 350.341,68.190 350.703,70.417 352.571 C 71.700 353.649,73.059 354.790,73.436 355.108 C 73.813 355.427,74.284 355.800,74.482 355.939 C 74.680 356.078,75.121 356.448,75.463 356.762 C 75.804 357.075,76.150 357.332,76.232 357.333 C 76.313 357.333,76.463 357.435,76.565 357.559 C 76.792 357.837,79.293 359.757,80.203 360.353 C 80.570 360.593,80.918 360.857,80.976 360.941 C 81.035 361.024,81.871 361.648,82.833 362.326 C 83.796 363.004,84.883 363.773,85.250 364.035 C 85.990 364.564,86.368 364.823,88.667 366.375 C 89.537 366.963,90.484 367.588,90.771 367.764 C 91.058 367.939,91.620 368.301,92.021 368.566 C 94.436 370.166,94.954 370.495,95.252 370.617 C 95.434 370.691,96.011 371.033,96.534 371.376 C 97.056 371.719,97.537 372.000,97.601 372.000 C 97.666 372.000,97.951 372.175,98.234 372.389 C 98.518 372.604,99.350 373.101,100.083 373.495 C 100.817 373.890,101.529 374.304,101.667 374.416 C 101.804 374.528,102.404 374.862,103.000 375.159 C 103.596 375.456,104.201 375.803,104.344 375.931 C 104.488 376.058,104.863 376.258,105.178 376.373 C 105.492 376.489,106.288 376.902,106.946 377.292 C 107.603 377.681,108.215 378.000,108.306 378.000 C 108.396 378.000,109.000 378.300,109.647 378.667 C 110.294 379.033,110.899 379.333,110.993 379.333 C 111.086 379.333,111.772 379.671,112.518 380.083 C 113.264 380.496,113.944 380.833,114.030 380.833 C 114.116 380.833,114.844 381.171,115.649 381.583 C 116.454 381.996,117.181 382.334,117.264 382.334 C 117.348 382.335,118.115 382.672,118.968 383.084 C 119.820 383.496,120.585 383.833,120.666 383.833 C 120.747 383.833,121.437 384.124,122.198 384.480 C 122.960 384.836,123.771 385.181,124.000 385.248 C 124.229 385.314,125.181 385.698,126.116 386.101 C 127.050 386.504,127.881 386.833,127.963 386.833 C 128.045 386.833,128.849 387.133,129.750 387.500 C 130.651 387.867,131.488 388.167,131.609 388.167 C 131.730 388.167,132.453 388.425,133.215 388.740 C 133.977 389.056,135.122 389.460,135.759 389.639 C 136.396 389.818,137.704 390.234,138.667 390.564 C 141.183 391.427,144.719 392.506,145.811 392.744 C 146.327 392.857,147.688 393.214,148.833 393.538 C 150.960 394.138,156.747 395.527,158.250 395.797 C 158.708 395.880,160.208 396.177,161.583 396.457 C 167.516 397.668,174.732 398.668,184.333 399.609 C 192.151 400.376,211.949 400.077,220.667 399.061 C 222.637 398.832,225.000 398.578,225.917 398.498 C 226.833 398.417,228.933 398.116,230.583 397.829 C 232.233 397.542,234.146 397.229,234.833 397.133 C 235.521 397.038,237.133 396.740,238.417 396.471 C 239.700 396.202,241.162 395.905,241.667 395.811 C 243.483 395.470,249.137 394.109,251.701 393.395 C 253.140 392.995,254.413 392.667,254.528 392.667 C 254.787 392.667,258.962 391.377,261.333 390.564 C 262.296 390.234,263.596 389.820,264.222 389.644 C 264.849 389.468,266.007 389.064,266.796 388.745 C 267.586 388.427,268.323 388.167,268.435 388.167 C 268.547 388.167,269.373 387.867,270.271 387.500 C 271.168 387.133,271.981 386.832,272.076 386.831 C 272.172 386.829,272.993 386.492,273.902 386.081 C 274.811 385.670,275.656 385.333,275.780 385.333 C 275.904 385.333,276.728 384.996,277.610 384.583 C 278.493 384.171,279.283 383.833,279.365 383.833 C 279.448 383.833,280.209 383.496,281.057 383.083 C 281.905 382.671,282.664 382.333,282.743 382.333 C 282.823 382.333,283.546 381.996,284.351 381.583 C 285.156 381.171,285.896 380.833,285.996 380.833 C 286.096 380.833,286.773 380.496,287.500 380.083 C 288.227 379.671,288.902 379.333,288.999 379.333 C 289.097 379.333,289.695 379.040,290.327 378.681 C 290.960 378.323,291.651 377.975,291.864 377.907 C 292.076 377.840,292.708 377.507,293.269 377.167 C 293.829 376.827,294.537 376.462,294.841 376.356 C 295.146 376.249,295.512 376.058,295.656 375.930 C 295.799 375.803,296.404 375.456,297.000 375.159 C 297.596 374.862,298.196 374.528,298.333 374.416 C 298.471 374.304,299.183 373.890,299.917 373.495 C 300.650 373.101,301.482 372.604,301.766 372.389 C 302.049 372.175,302.356 372.000,302.446 372.000 C 302.537 372.000,303.018 371.715,303.516 371.366 C 304.013 371.018,304.569 370.676,304.752 370.606 C 305.051 370.491,305.749 370.049,307.975 368.566 C 308.374 368.301,308.910 367.965,309.166 367.821 C 309.829 367.448,311.965 366.012,312.738 365.419 C 313.098 365.143,313.637 364.767,313.935 364.583 C 314.233 364.400,315.063 363.834,315.780 363.326 C 316.497 362.818,317.496 362.115,318.000 361.765 C 318.504 361.415,318.992 361.037,319.083 360.925 C 319.175 360.813,319.521 360.541,319.852 360.319 C 321.046 359.520,323.500 357.604,323.500 357.470 C 323.500 357.395,323.594 357.333,323.708 357.333 C 323.823 357.332,324.185 357.085,324.513 356.784 C 324.841 356.483,325.301 356.089,325.535 355.910 C 326.128 355.455,329.232 352.944,329.333 352.837 C 329.379 352.789,329.979 352.265,330.667 351.673 C 332.737 349.890,333.842 348.903,335.154 347.667 C 335.591 347.254,336.984 345.942,338.249 344.750 C 341.124 342.041,342.041 341.124,344.750 338.249 C 345.942 336.984,347.254 335.591,347.667 335.154 C 348.903 333.842,349.890 332.737,351.673 330.667 C 352.265 329.979,352.789 329.379,352.837 329.333 C 352.944 329.232,355.455 326.128,355.910 325.535 C 356.089 325.301,356.483 324.841,356.784 324.513 C 357.085 324.185,357.332 323.823,357.333 323.708 C 357.333 323.594,357.395 323.500,357.470 323.500 C 357.604 323.500,359.520 321.046,360.319 319.852 C 360.541 319.521,360.813 319.175,360.925 319.083 C 361.037 318.992,361.415 318.504,361.765 318.000 C 362.115 317.496,362.818 316.497,363.326 315.780 C 363.834 315.063,364.400 314.233,364.583 313.935 C 364.767 313.637,365.143 313.098,365.419 312.738 C 366.012 311.965,367.448 309.829,367.821 309.166 C 367.965 308.910,368.301 308.374,368.566 307.975 C 370.049 305.749,370.491 305.051,370.606 304.752 C 370.676 304.569,371.018 304.013,371.366 303.516 C 371.715 303.018,372.000 302.537,372.000 302.446 C 372.000 302.356,372.175 302.049,372.389 301.766 C 372.604 301.482,373.101 300.650,373.495 299.917 C 373.890 299.183,374.304 298.471,374.416 298.333 C 374.528 298.196,374.862 297.596,375.159 297.000 C 375.456 296.404,375.803 295.799,375.930 295.656 C 376.058 295.512,376.249 295.146,376.356 294.841 C 376.462 294.537,376.827 293.829,377.167 293.269 C 377.507 292.708,377.840 292.076,377.907 291.864 C 377.975 291.651,378.323 290.960,378.681 290.327 C 379.040 289.695,379.333 289.097,379.333 288.999 C 379.333 288.902,379.671 288.227,380.083 287.500 C 380.496 286.773,380.833 286.096,380.833 285.996 C 380.833 285.896,381.171 285.156,381.583 284.351 C 381.996 283.546,382.333 282.823,382.333 282.743 C 382.333 282.664,382.671 281.905,383.083 281.057 C 383.496 280.209,383.833 279.448,383.833 279.365 C 383.833 279.283,384.171 278.493,384.583 277.610 C 384.996 276.728,385.332 275.910,385.331 275.794 C 385.329 275.678,385.620 274.908,385.978 274.083 C 386.847 272.074,388.029 268.911,389.216 265.417 C 389.496 264.592,390.050 262.998,390.446 261.876 C 390.842 260.754,391.167 259.728,391.167 259.597 C 391.167 259.466,391.504 258.322,391.917 257.056 C 392.329 255.789,392.667 254.655,392.667 254.536 C 392.667 254.416,392.993 253.140,393.392 251.701 C 394.354 248.229,395.484 243.636,395.656 242.498 C 395.732 241.995,396.057 240.346,396.377 238.833 C 396.697 237.321,397.038 235.521,397.133 234.833 C 397.229 234.146,397.542 232.233,397.829 230.583 C 398.116 228.933,398.417 226.833,398.498 225.917 C 398.578 225.000,398.832 222.637,399.061 220.667 C 400.077 211.949,400.376 192.151,399.609 184.333 C 398.668 174.732,397.668 167.516,396.457 161.583 C 396.177 160.208,395.880 158.708,395.797 158.250 C 395.527 156.747,394.138 150.960,393.538 148.833 C 393.214 147.688,392.857 146.327,392.744 145.811 C 392.506 144.719,391.427 141.183,390.564 138.667 C 390.234 137.704,389.818 136.396,389.639 135.759 C 389.460 135.122,389.056 133.977,388.740 133.215 C 388.425 132.453,388.167 131.730,388.167 131.609 C 388.167 131.488,387.867 130.651,387.500 129.750 C 387.133 128.849,386.833 128.045,386.833 127.963 C 386.833 127.881,386.504 127.050,386.101 126.116 C 385.698 125.181,385.314 124.229,385.248 124.000 C 385.181 123.771,384.836 122.960,384.480 122.198 C 384.124 121.437,383.833 120.740,383.833 120.649 C 383.833 120.559,383.496 119.791,383.083 118.943 C 382.671 118.095,382.333 117.336,382.333 117.257 C 382.333 117.177,381.996 116.454,381.583 115.649 C 381.171 114.844,380.833 114.116,380.833 114.030 C 380.833 113.944,380.496 113.264,380.083 112.518 C 379.671 111.772,379.333 111.086,379.333 110.993 C 379.333 110.899,379.033 110.294,378.667 109.647 C 378.300 109.000,378.000 108.396,378.000 108.306 C 378.000 108.215,377.681 107.603,377.292 106.946 C 376.902 106.288,376.489 105.492,376.373 105.178 C 376.258 104.863,376.058 104.488,375.931 104.344 C 375.803 104.201,375.456 103.596,375.159 103.000 C 374.862 102.404,374.528 101.804,374.416 101.667 C 374.304 101.529,373.890 100.817,373.495 100.083 C 373.101 99.350,372.604 98.518,372.389 98.234 C 372.175 97.951,372.000 97.666,372.000 97.601 C 372.000 97.537,371.719 97.056,371.376 96.534 C 371.033 96.011,370.691 95.434,370.617 95.252 C 370.495 94.954,370.166 94.436,368.566 92.021 C 368.301 91.620,367.939 91.058,367.764 90.771 C 367.588 90.484,366.963 89.537,366.375 88.667 C 364.823 86.368,364.564 85.990,364.035 85.250 C 363.773 84.883,363.004 83.796,362.326 82.833 C 361.648 81.871,361.024 81.035,360.941 80.976 C 360.857 80.918,360.593 80.570,360.353 80.203 C 359.757 79.293,357.837 76.792,357.559 76.565 C 357.435 76.463,357.333 76.313,357.333 76.232 C 357.332 76.150,357.079 75.808,356.771 75.472 C 356.462 75.136,356.033 74.611,355.817 74.306 C 355.601 74.000,355.304 73.637,355.158 73.500 C 355.012 73.362,354.597 72.876,354.238 72.419 C 353.235 71.146,350.257 67.672,349.000 66.312 C 348.679 65.964,348.004 65.225,347.500 64.669 C 345.169 62.099,341.340 58.201,338.411 55.417 C 333.963 51.189,333.473 50.744,330.248 47.986 C 329.238 47.123,328.038 46.120,327.581 45.758 C 327.124 45.395,326.637 44.976,326.500 44.826 C 326.362 44.676,326.000 44.382,325.694 44.172 C 325.389 43.962,324.864 43.538,324.528 43.229 C 324.192 42.921,323.850 42.668,323.768 42.667 C 323.687 42.667,323.537 42.565,323.435 42.441 C 323.235 42.197,320.936 40.419,319.687 39.543 C 319.263 39.245,318.579 38.743,318.167 38.426 C 317.109 37.614,314.576 35.813,313.933 35.417 C 313.636 35.233,313.098 34.856,312.738 34.578 C 311.953 33.972,310.315 32.878,309.502 32.417 C 309.178 32.233,308.614 31.874,308.248 31.618 C 306.758 30.576,304.754 29.333,304.564 29.333 C 304.452 29.333,304.336 29.274,304.306 29.202 C 304.244 29.057,302.559 28.000,302.388 28.000 C 302.330 28.000,302.049 27.825,301.766 27.611 C 301.482 27.396,300.650 26.899,299.917 26.505 C 299.183 26.110,298.471 25.696,298.333 25.584 C 298.196 25.472,297.596 25.138,297.000 24.841 C 296.404 24.544,295.799 24.197,295.656 24.070 C 295.512 23.942,295.146 23.751,294.841 23.644 C 294.537 23.538,293.812 23.162,293.230 22.809 C 292.648 22.456,292.094 22.167,291.997 22.167 C 291.901 22.167,291.227 21.829,290.500 21.417 C 289.773 21.004,289.098 20.667,289.001 20.667 C 288.903 20.667,288.305 20.373,287.673 20.015 C 287.040 19.656,286.349 19.309,286.136 19.244 C 285.924 19.179,285.106 18.797,284.319 18.396 C 283.532 17.995,282.821 17.667,282.738 17.667 C 282.656 17.667,282.138 17.444,281.586 17.172 C 280.560 16.667,279.175 16.070,276.667 15.053 C 275.887 14.737,274.662 14.221,273.944 13.906 C 273.226 13.591,272.551 13.333,272.444 13.332 C 272.337 13.332,271.435 12.994,270.440 12.582 C 269.444 12.170,268.540 11.833,268.430 11.833 C 268.321 11.833,267.586 11.573,266.796 11.255 C 266.007 10.936,264.849 10.531,264.222 10.355 C 263.596 10.178,262.296 9.766,261.333 9.440 C 258.752 8.563,254.771 7.333,254.516 7.333 C 254.393 7.333,253.271 7.036,252.021 6.672 C 250.772 6.308,249.489 5.966,249.169 5.913 C 248.850 5.859,247.463 5.527,246.086 5.175 C 244.710 4.823,243.208 4.485,242.750 4.425 C 242.292 4.365,241.354 4.176,240.667 4.005 C 234.978 2.589,221.867 0.814,212.362 0.172 C 210.093 0.019,190.694 -0.025,188.333 0.117 M182.333 43.167 L 182.333 77.167 229.917 77.167 L 277.500 77.167 277.500 50.177 C 277.500 35.332,277.556 23.154,277.625 23.115 C 277.694 23.075,278.313 23.314,279.000 23.646 L 280.250 24.250 280.292 50.708 L 280.334 77.167 314.729 77.167 L 349.123 77.167 350.103 78.341 C 350.642 78.987,351.108 79.587,351.139 79.675 C 351.174 79.775,338.133 79.833,315.764 79.833 L 280.333 79.833 280.333 96.667 C 280.333 105.925,280.383 113.500,280.444 113.500 C 280.505 113.500,281.649 112.847,282.986 112.049 C 284.323 111.251,286.647 109.863,288.151 108.964 C 289.655 108.066,290.913 107.358,290.946 107.391 C 290.979 107.424,291.117 114.906,291.252 124.017 C 291.387 133.129,291.572 145.346,291.665 151.167 C 291.874 164.359,291.878 163.333,291.618 163.333 C 291.500 163.333,290.731 162.952,289.910 162.487 C 287.921 161.359,285.926 160.239,284.000 159.167 C 283.129 158.682,281.993 158.034,281.475 157.726 C 280.957 157.418,280.488 157.167,280.433 157.167 C 280.378 157.167,280.333 161.217,280.333 166.167 L 280.333 175.167 335.990 175.167 L 391.646 175.167 391.734 175.875 C 391.941 177.557,391.940 177.654,391.707 177.744 C 391.578 177.793,366.466 177.833,335.903 177.833 L 280.333 177.833 280.333 225.417 L 280.333 273.000 329.601 273.000 L 378.869 273.000 378.772 273.387 C 378.719 273.601,378.480 274.201,378.242 274.721 L 377.809 275.667 329.071 275.667 L 280.334 275.667 280.292 325.754 L 280.250 375.842 278.966 376.401 C 278.259 376.708,277.640 376.918,277.591 376.868 C 277.541 376.819,277.500 354.028,277.500 326.222 L 277.500 275.667 229.917 275.667 L 182.333 275.667 182.333 334.000 L 182.333 392.333 181.375 392.331 C 180.848 392.330,180.248 392.284,180.042 392.228 L 179.667 392.128 179.661 334.022 L 179.656 275.917 179.287 276.412 C 179.084 276.685,178.655 277.216,178.334 277.593 C 178.013 277.970,176.775 279.465,175.583 280.915 C 174.392 282.366,172.442 284.733,171.250 286.176 C 170.058 287.618,168.333 289.720,167.417 290.845 C 166.500 291.971,165.450 293.241,165.083 293.668 C 164.717 294.095,163.067 296.102,161.417 298.129 C 159.767 300.156,158.325 301.819,158.212 301.824 C 158.099 301.829,157.349 301.392,156.545 300.852 C 155.741 300.313,152.833 298.503,150.083 296.830 C 147.333 295.157,144.586 293.480,143.978 293.103 C 143.370 292.725,142.507 292.195,142.061 291.924 C 139.687 290.483,139.080 290.113,137.179 288.948 L 135.108 287.679 134.786 288.381 C 134.409 289.203,133.097 292.210,132.080 294.583 C 131.687 295.500,130.937 297.225,130.413 298.417 C 129.889 299.608,129.289 300.996,129.079 301.500 C 128.869 302.004,128.270 303.392,127.747 304.583 C 127.223 305.775,126.474 307.500,126.080 308.417 C 125.250 310.351,124.553 311.959,123.337 314.750 C 122.857 315.850,122.143 317.500,121.749 318.417 C 121.355 319.333,120.379 321.583,119.580 323.417 C 118.780 325.250,117.772 327.575,117.338 328.583 C 113.418 337.706,113.888 336.833,113.136 336.378 C 112.832 336.194,110.821 334.975,108.667 333.669 C 106.513 332.363,103.662 330.640,102.333 329.839 C 101.004 329.039,98.717 327.650,97.250 326.753 C 95.783 325.856,94.171 324.881,93.667 324.588 C 92.420 323.862,90.934 322.968,86.333 320.173 C 82.807 318.031,78.608 315.491,74.167 312.814 L 72.583 311.860 72.541 328.430 C 72.518 337.543,72.451 345.000,72.393 345.000 C 72.335 345.000,71.736 344.506,71.061 343.902 L 69.835 342.805 69.792 326.469 L 69.750 310.132 65.333 307.459 C 62.904 305.989,60.401 304.485,59.770 304.116 L 58.624 303.446 57.185 304.932 C 55.934 306.223,48.220 314.601,46.711 316.308 L 46.173 316.917 45.839 316.500 C 44.654 315.023,40.527 309.203,38.891 306.701 L 38.314 305.819 40.782 303.118 C 52.581 290.203,56.015 286.500,56.195 286.500 C 56.341 286.500,57.239 287.034,65.125 291.805 L 69.833 294.654 69.833 285.160 L 69.833 275.667 46.025 275.667 L 22.216 275.667 21.691 274.528 C 21.403 273.902,21.167 273.302,21.167 273.195 C 21.167 273.047,27.029 273.000,45.500 273.000 L 69.833 273.000 69.833 225.417 L 69.833 177.833 39.180 177.833 C 6.517 177.833,7.979 177.863,8.084 177.193 C 8.122 176.949,8.199 176.394,8.254 175.958 L 8.354 175.167 39.094 175.167 L 69.833 175.167 69.833 127.500 L 69.833 79.833 59.319 79.833 C 52.732 79.833,48.826 79.774,48.861 79.675 C 48.892 79.587,49.358 78.987,49.897 78.341 L 50.877 77.167 60.355 77.167 L 69.833 77.167 69.833 67.186 L 69.833 57.205 70.500 56.603 C 71.033 56.122,71.302 56.000,71.834 56.000 L 72.500 56.000 72.500 66.583 L 72.500 77.167 126.083 77.167 L 179.667 77.167 179.667 43.167 L 179.667 9.167 181.000 9.167 L 182.333 9.167 182.333 43.167 M72.500 127.500 L 72.500 175.167 126.083 175.167 L 179.667 175.167 179.667 127.500 L 179.667 79.833 126.083 79.833 L 72.500 79.833 72.500 127.500 M182.333 127.500 L 182.333 175.167 215.471 175.167 L 248.609 175.167 249.817 172.792 C 252.558 167.405,262.485 147.569,262.532 147.385 C 262.561 147.274,260.439 145.991,257.750 144.492 C 255.092 143.010,252.354 141.482,251.667 141.095 C 250.979 140.709,249.967 140.144,249.417 139.840 C 248.867 139.536,247.929 139.008,247.333 138.668 C 246.737 138.327,245.481 137.617,244.542 137.090 C 242.563 135.980,242.600 136.045,243.626 135.487 C 244.061 135.251,245.279 134.533,246.333 133.891 C 247.387 133.250,249.938 131.723,252.000 130.500 C 254.063 129.276,257.400 127.288,259.417 126.083 C 261.433 124.877,264.696 122.932,266.667 121.761 C 268.637 120.590,271.881 118.659,273.875 117.469 L 277.500 115.307 277.500 97.570 L 277.500 79.833 229.917 79.833 L 182.333 79.833 182.333 127.500 M268.868 164.500 L 263.488 175.167 270.494 175.167 L 277.500 175.167 277.500 165.368 L 277.500 155.569 276.458 154.969 C 275.432 154.377,274.398 153.833,274.299 153.833 C 274.272 153.833,271.828 158.633,268.868 164.500 M72.500 225.417 L 72.500 273.000 99.715 273.000 L 126.931 273.000 127.536 271.625 C 127.869 270.869,128.496 269.446,128.929 268.464 C 129.419 267.352,129.786 266.719,129.900 266.787 C 130.001 266.848,130.646 267.283,131.333 267.754 C 132.021 268.225,134.053 269.598,135.850 270.805 L 139.116 273.000 152.016 272.991 L 164.917 272.983 165.692 272.033 C 166.118 271.511,167.093 270.323,167.858 269.395 C 168.624 268.466,169.662 267.198,170.167 266.577 C 170.671 265.957,171.346 265.137,171.667 264.755 C 171.987 264.374,173.037 263.102,174.000 261.929 C 174.963 260.756,176.630 258.736,177.706 257.440 L 179.662 255.083 179.664 216.458 L 179.667 177.833 126.083 177.833 L 72.500 177.833 72.500 225.417 M182.334 214.792 L 182.335 251.750 182.976 251.000 C 183.328 250.588,184.756 248.862,186.151 247.167 C 192.103 239.926,193.024 238.807,195.083 236.319 C 196.275 234.879,197.662 233.196,198.167 232.581 C 198.671 231.965,199.692 230.725,200.437 229.826 C 201.181 228.927,201.979 227.950,202.210 227.655 L 202.629 227.119 204.773 227.630 C 205.952 227.911,208.492 228.493,210.417 228.924 C 212.342 229.355,215.336 230.037,217.070 230.441 C 218.804 230.845,220.279 231.155,220.347 231.129 C 220.473 231.082,222.266 227.542,236.921 198.417 C 241.487 189.342,245.688 180.998,246.256 179.875 L 247.289 177.833 214.811 177.833 L 182.333 177.833 182.334 214.792 M261.940 178.292 C 261.370 179.401,251.874 198.251,244.496 212.917 C 240.069 221.717,235.216 231.354,233.712 234.333 C 232.207 237.313,230.562 240.688,230.056 241.833 C 229.550 242.979,228.814 244.629,228.422 245.500 C 228.029 246.371,227.656 247.252,227.593 247.458 C 227.448 247.929,227.455 247.929,223.569 247.422 C 221.835 247.196,219.592 246.930,218.583 246.833 C 217.575 246.735,214.343 246.357,211.401 245.994 C 208.459 245.631,205.785 245.333,205.458 245.333 C 204.893 245.333,204.758 245.463,202.647 248.042 C 201.428 249.531,199.715 251.609,198.840 252.659 C 197.966 253.709,197.063 254.806,196.833 255.098 C 196.604 255.389,195.592 256.621,194.583 257.834 C 193.575 259.047,192.525 260.323,192.250 260.669 C 191.975 261.014,190.063 263.340,188.000 265.838 C 185.938 268.335,184.067 270.612,183.843 270.897 C 183.619 271.183,183.188 271.698,182.884 272.042 C 182.581 272.386,182.333 272.742,182.333 272.834 C 182.333 272.944,198.397 273.000,229.917 273.000 L 277.500 273.000 277.500 225.417 L 277.500 177.833 269.838 177.833 L 262.175 177.833 261.940 178.292 M72.500 285.960 L 72.500 296.253 72.875 296.489 C 73.251 296.726,81.671 301.827,85.417 304.088 C 86.517 304.752,89.179 306.362,91.333 307.665 C 94.751 309.732,100.933 313.465,106.000 316.521 L 107.583 317.476 107.809 317.048 C 108.022 316.646,108.914 314.621,110.584 310.750 C 110.979 309.833,111.694 308.183,112.172 307.083 C 112.650 305.983,113.285 304.521,113.583 303.833 C 113.881 303.146,114.517 301.683,114.997 300.583 C 115.476 299.483,116.190 297.833,116.583 296.917 C 116.976 296.000,117.950 293.750,118.748 291.917 C 119.545 290.083,120.411 288.078,120.672 287.461 C 120.932 286.844,121.403 285.756,121.719 285.045 C 122.034 284.333,122.633 282.962,123.051 282.000 C 123.468 281.037,124.227 279.295,124.738 278.127 C 125.249 276.960,125.667 275.929,125.667 275.836 C 125.667 275.722,116.932 275.667,99.083 275.667 L 72.500 275.667 72.500 285.960 M143.588 275.977 C 143.769 276.147,145.904 277.622,148.333 279.253 C 150.762 280.885,153.413 282.675,154.224 283.232 L 155.698 284.244 156.057 283.751 C 156.254 283.480,156.678 282.950,156.999 282.573 C 157.321 282.196,158.371 280.924,159.333 279.748 C 160.296 278.571,161.402 277.232,161.792 276.772 C 162.181 276.313,162.500 275.876,162.500 275.802 C 162.500 275.727,158.171 275.667,152.880 275.667 C 143.493 275.667,143.267 275.674,143.588 275.977 " stroke="none" fill="#04a4b4" fill-rule="evenodd"></path><path id="path2" d="M179.778 9.278 C 179.717 9.339,179.667 24.639,179.667 43.278 L 179.667 77.167 126.085 77.167 L 72.502 77.167 72.458 66.583 L 72.413 56.000 72.415 66.625 L 72.417 77.250 126.083 77.250 L 179.750 77.250 179.792 43.299 L 179.834 9.348 181.042 9.290 L 182.250 9.233 181.069 9.200 C 180.420 9.182,179.839 9.217,179.778 9.278 M69.874 67.207 L 69.833 77.164 60.375 77.208 L 50.917 77.253 60.380 77.293 C 67.827 77.325,69.861 77.289,69.923 77.125 C 69.967 77.010,69.983 72.492,69.959 67.083 L 69.914 57.250 69.874 67.207 M206.055 77.292 C 219.240 77.315,240.765 77.315,253.888 77.292 C 267.012 77.268,256.225 77.249,229.917 77.249 C 203.608 77.249,192.871 77.268,206.055 77.292 M292.583 77.291 C 325.892 77.404,349.294 77.405,349.224 77.292 C 349.182 77.223,333.608 77.185,314.615 77.207 C 295.623 77.230,285.708 77.267,292.583 77.291 M69.916 127.417 C 69.916 153.725,69.935 164.463,69.958 151.278 C 69.982 138.094,69.982 116.569,69.958 103.445 C 69.935 90.321,69.916 101.108,69.916 127.417 M179.749 127.417 C 179.749 153.725,179.768 164.463,179.792 151.278 C 179.815 138.094,179.815 116.569,179.792 103.445 C 179.768 90.321,179.749 101.108,179.749 127.417 M72.416 127.500 C 72.416 153.762,72.435 164.506,72.458 151.375 C 72.482 138.244,72.482 116.756,72.458 103.625 C 72.435 90.494,72.416 101.237,72.416 127.500 M290.872 108.000 C 290.872 108.321,290.906 108.452,290.948 108.292 C 290.990 108.131,290.990 107.869,290.948 107.708 C 290.906 107.548,290.872 107.679,290.872 108.000 M291.065 117.417 C 291.065 118.608,291.092 119.074,291.124 118.451 C 291.156 117.829,291.156 116.854,291.123 116.285 C 291.091 115.716,291.064 116.225,291.065 117.417 M291.231 129.000 C 291.231 130.146,291.258 130.615,291.290 130.042 C 291.323 129.469,291.323 128.531,291.290 127.958 C 291.258 127.385,291.231 127.854,291.231 129.000 M291.398 140.583 C 291.398 141.775,291.425 142.241,291.457 141.618 C 291.489 140.996,291.489 140.021,291.457 139.451 C 291.424 138.882,291.398 139.392,291.398 140.583 M291.568 153.417 C 291.568 154.975,291.593 155.635,291.624 154.883 C 291.655 154.131,291.655 152.856,291.624 152.050 C 291.594 151.243,291.568 151.858,291.568 153.417 M269.694 162.424 C 269.414 163.037,269.468 163.167,269.770 162.610 C 269.911 162.350,269.995 162.106,269.957 162.068 C 269.919 162.030,269.800 162.190,269.694 162.424 M391.709 177.083 C 391.711 177.450,391.745 177.580,391.785 177.373 C 391.824 177.166,391.823 176.866,391.781 176.706 C 391.739 176.547,391.707 176.717,391.709 177.083 M8.205 177.167 C 8.205 177.487,8.240 177.619,8.282 177.458 C 8.323 177.298,8.323 177.035,8.282 176.875 C 8.240 176.715,8.205 176.846,8.205 177.167 M69.916 225.417 C 69.916 251.725,69.935 262.463,69.958 249.278 C 69.982 236.094,69.982 214.569,69.958 201.445 C 69.935 188.321,69.916 199.108,69.916 225.417 M72.416 225.333 C 72.416 251.596,72.435 262.340,72.458 249.208 C 72.482 236.077,72.482 214.590,72.458 201.458 C 72.435 188.327,72.416 199.071,72.416 225.333 M179.749 216.417 C 179.749 237.775,179.768 246.488,179.792 235.778 C 179.815 225.069,179.815 207.594,179.792 196.945 C 179.768 186.296,179.749 195.058,179.749 216.417 M256.360 188.924 C 256.081 189.537,256.134 189.667,256.436 189.110 C 256.577 188.850,256.662 188.606,256.623 188.568 C 256.585 188.530,256.467 188.690,256.360 188.924 M244.694 212.090 C 244.414 212.703,244.468 212.834,244.770 212.277 C 244.911 212.017,244.995 211.773,244.957 211.735 C 244.919 211.696,244.800 211.857,244.694 212.090 M233.027 235.257 C 232.748 235.870,232.801 236.001,233.103 235.444 C 233.244 235.183,233.328 234.939,233.290 234.901 C 233.252 234.863,233.134 235.023,233.027 235.257 M46.003 275.625 L 69.839 275.668 69.794 285.251 C 69.770 290.521,69.807 294.833,69.876 294.833 C 69.946 294.833,69.983 290.502,69.960 285.208 L 69.917 275.583 46.042 275.582 L 22.167 275.582 46.003 275.625 M72.444 275.611 C 72.149 275.906,72.325 296.286,72.625 296.513 C 72.873 296.701,72.886 296.699,72.708 296.500 C 72.546 296.319,72.500 293.971,72.500 285.966 L 72.500 275.665 99.234 275.707 C 113.938 275.731,125.933 275.694,125.891 275.625 C 125.795 275.471,72.599 275.457,72.444 275.611 M146.417 275.621 C 155.445 275.737,162.795 275.738,162.724 275.625 C 162.682 275.556,158.208 275.517,152.782 275.538 C 147.356 275.559,144.492 275.596,146.417 275.621 M206.125 275.625 C 219.256 275.649,240.744 275.649,253.875 275.625 C 267.006 275.601,256.262 275.582,230.000 275.582 C 203.737 275.582,192.994 275.601,206.125 275.625 M304.542 275.625 C 317.994 275.649,340.006 275.649,353.458 275.625 C 366.910 275.601,355.904 275.582,329.000 275.582 C 302.096 275.582,291.090 275.601,304.542 275.625 M179.312 276.125 C 179.105 276.389,179.111 276.395,179.375 276.188 C 179.652 275.971,179.668 278.770,179.708 334.019 C 179.745 385.488,179.778 392.081,180.000 392.097 C 180.144 392.108,180.161 392.086,180.042 392.045 C 179.876 391.990,179.833 380.213,179.833 333.904 C 179.833 300.703,179.771 275.833,179.687 275.833 C 179.607 275.833,179.438 275.965,179.312 276.125 M48.667 294.583 C 48.262 294.996,47.968 295.333,48.014 295.333 C 48.060 295.333,48.428 294.996,48.833 294.583 C 49.238 294.171,49.532 293.833,49.486 293.833 C 49.440 293.833,49.072 294.171,48.667 294.583 M46.909 296.542 L 46.250 297.250 46.958 296.591 C 47.617 295.978,47.743 295.833,47.617 295.833 C 47.590 295.833,47.271 296.152,46.909 296.542 M44.906 298.708 L 44.417 299.250 44.958 298.760 C 45.463 298.304,45.577 298.167,45.448 298.167 C 45.419 298.167,45.175 298.410,44.906 298.708 M43.158 300.625 L 42.583 301.250 43.208 300.676 C 43.790 300.141,43.910 300.000,43.783 300.000 C 43.755 300.000,43.474 300.281,43.158 300.625 M41.409 302.542 L 40.750 303.250 41.458 302.591 C 42.117 301.978,42.243 301.833,42.117 301.833 C 42.090 301.833,41.771 302.152,41.409 302.542 M54.242 307.875 L 53.583 308.583 54.292 307.925 C 54.950 307.312,55.077 307.167,54.950 307.167 C 54.923 307.167,54.605 307.485,54.242 307.875 M52.575 309.708 L 51.917 310.417 52.625 309.758 C 53.284 309.145,53.410 309.000,53.284 309.000 C 53.257 309.000,52.938 309.319,52.575 309.708 M69.913 326.333 C 69.913 335.362,69.934 339.056,69.958 334.542 C 69.983 330.027,69.983 322.640,69.958 318.125 C 69.934 313.610,69.913 317.304,69.913 326.333 M50.573 311.875 L 50.083 312.417 50.625 311.927 C 50.923 311.658,51.167 311.414,51.167 311.385 C 51.167 311.257,51.029 311.370,50.573 311.875 M72.373 328.292 C 72.395 337.435,72.432 342.254,72.456 339.000 C 72.570 323.476,72.571 311.667,72.458 311.667 C 72.390 311.667,72.351 319.148,72.373 328.292 M48.740 313.875 L 48.250 314.417 48.792 313.927 C 49.297 313.471,49.410 313.333,49.281 313.333 C 49.252 313.333,49.009 313.577,48.740 313.875 M46.909 315.875 L 46.250 316.583 46.958 315.925 C 47.617 315.312,47.743 315.167,47.617 315.167 C 47.590 315.167,47.271 315.485,46.909 315.875 M71.167 343.917 C 71.478 344.238,71.770 344.500,71.815 344.500 C 71.861 344.500,71.644 344.238,71.333 343.917 C 71.022 343.596,70.730 343.333,70.685 343.333 C 70.639 343.333,70.856 343.596,71.167 343.917 " stroke="none" fill="#8dd6de" fill-rule="evenodd"></path><path id="path3" d="M182.248 43.250 C 182.248 61.950,182.268 69.575,182.292 60.195 C 182.315 50.815,182.315 35.515,182.292 26.195 C 182.268 16.875,182.248 24.550,182.248 43.250 M54.220 79.792 C 57.137 79.817,61.862 79.817,64.720 79.792 C 67.578 79.766,65.192 79.745,59.417 79.745 C 53.642 79.745,51.303 79.766,54.220 79.792 M99.305 79.792 C 114.094 79.815,138.244 79.815,152.972 79.792 C 167.700 79.768,155.600 79.749,126.083 79.749 C 96.567 79.749,84.516 79.768,99.305 79.792 M182.244 79.875 C 182.200 79.990,182.184 101.496,182.208 127.667 L 182.251 175.250 182.292 127.542 L 182.333 79.834 229.958 79.792 L 277.583 79.749 229.953 79.708 C 191.972 79.675,182.307 79.709,182.244 79.875 M297.958 79.792 C 307.698 79.815,323.635 79.815,333.375 79.792 C 343.115 79.768,335.146 79.748,315.667 79.748 C 296.188 79.748,288.219 79.768,297.958 79.792 M291.053 114.333 C 291.053 114.929,291.084 115.173,291.121 114.875 C 291.158 114.577,291.158 114.090,291.121 113.792 C 291.084 113.494,291.053 113.737,291.053 114.333 M291.214 126.250 C 291.216 126.708,291.248 126.876,291.286 126.623 C 291.325 126.369,291.324 125.994,291.284 125.789 C 291.244 125.584,291.213 125.792,291.214 126.250 M291.387 137.500 C 291.387 138.096,291.417 138.340,291.454 138.042 C 291.491 137.744,291.491 137.256,291.454 136.958 C 291.417 136.660,291.387 136.904,291.387 137.500 M291.558 149.333 C 291.558 150.112,291.587 150.431,291.622 150.042 C 291.657 149.652,291.657 149.015,291.622 148.625 C 291.587 148.235,291.558 148.554,291.558 149.333 M291.728 161.333 C 291.728 162.296,291.756 162.690,291.790 162.208 C 291.823 161.727,291.823 160.940,291.790 160.458 C 291.756 159.977,291.728 160.371,291.728 161.333 M182.249 214.917 C 182.249 235.358,182.268 243.746,182.292 233.555 C 182.315 223.364,182.315 206.639,182.292 196.388 C 182.268 186.137,182.249 194.475,182.249 214.917 M182.309 273.042 C 182.378 273.111,203.843 273.148,230.009 273.125 L 277.583 273.083 229.883 273.000 C 203.648 272.954,182.240 272.973,182.309 273.042 M21.167 273.125 C 21.167 273.238,37.995 273.237,61.167 273.123 C 65.979 273.100,58.948 273.062,45.542 273.040 C 32.135 273.018,21.167 273.056,21.167 273.125 M86.042 273.125 C 93.535 273.149,105.798 273.149,113.292 273.125 C 120.785 273.101,114.654 273.081,99.667 273.081 C 84.679 273.081,78.548 273.101,86.042 273.125 M145.721 273.125 C 149.280 273.150,155.055 273.150,158.554 273.125 C 162.053 273.100,159.142 273.079,152.083 273.079 C 145.025 273.079,142.162 273.100,145.721 273.125 M304.972 273.125 C 318.569 273.149,340.769 273.149,354.305 273.125 C 367.841 273.101,356.717 273.082,329.583 273.082 C 302.450 273.082,291.375 273.101,304.972 273.125 M182.249 334.000 C 182.249 366.129,182.268 379.273,182.292 363.208 C 182.315 347.144,182.315 320.856,182.292 304.792 C 182.268 288.727,182.249 301.871,182.249 334.000 M49.740 293.375 L 49.250 293.917 49.792 293.427 C 50.090 293.158,50.333 292.914,50.333 292.885 C 50.333 292.757,50.196 292.870,49.740 293.375 " stroke="none" fill="#50bfc8" fill-rule="evenodd"></path><path id="path4" d="M277.577 23.208 C 277.533 23.323,277.517 35.529,277.541 50.333 L 277.583 77.250 277.667 50.125 C 277.713 35.206,277.729 23.000,277.703 23.000 C 277.677 23.000,277.621 23.094,277.577 23.208 M280.248 50.667 C 280.248 65.196,280.268 71.140,280.292 63.875 C 280.316 56.610,280.316 44.723,280.292 37.458 C 280.268 30.194,280.248 36.137,280.248 50.667 M277.580 97.583 C 277.580 107.392,277.600 111.380,277.625 106.446 C 277.650 101.511,277.649 93.486,277.625 88.612 C 277.600 83.738,277.580 87.775,277.580 97.583 M280.206 96.615 C 280.184 105.891,280.223 113.515,280.292 113.558 C 280.405 113.628,280.404 101.818,280.289 85.833 C 280.265 82.487,280.228 87.339,280.206 96.615 M291.048 112.583 C 291.049 113.042,291.081 113.209,291.120 112.956 C 291.158 112.703,291.157 112.328,291.117 112.123 C 291.078 111.918,291.046 112.125,291.048 112.583 M291.220 124.500 C 291.220 125.096,291.250 125.340,291.287 125.042 C 291.324 124.744,291.324 124.256,291.287 123.958 C 291.250 123.660,291.220 123.904,291.220 124.500 M291.381 135.750 C 291.382 136.208,291.415 136.376,291.453 136.123 C 291.491 135.869,291.490 135.494,291.451 135.289 C 291.411 135.084,291.380 135.292,291.381 135.750 M291.553 147.000 C 291.553 147.596,291.584 147.840,291.621 147.542 C 291.658 147.244,291.658 146.756,291.621 146.458 C 291.584 146.160,291.553 146.404,291.553 147.000 M277.578 165.417 C 277.578 170.825,277.599 173.013,277.625 170.280 C 277.651 167.546,277.651 163.121,277.625 160.446 C 277.599 157.772,277.578 160.008,277.578 165.417 M280.244 166.167 C 280.244 171.162,280.266 173.206,280.292 170.708 C 280.317 168.210,280.317 164.123,280.292 161.625 C 280.266 159.127,280.244 161.171,280.244 166.167 M291.721 158.583 C 291.722 159.225,291.752 159.467,291.788 159.121 C 291.824 158.775,291.824 158.250,291.787 157.955 C 291.750 157.659,291.721 157.942,291.721 158.583 M23.722 177.792 C 32.231 177.816,46.106 177.816,54.555 177.792 C 63.004 177.768,56.042 177.748,39.083 177.748 C 22.125 177.748,15.212 177.768,23.722 177.792 M99.305 177.792 C 114.094 177.815,138.244 177.815,152.972 177.792 C 167.700 177.768,155.600 177.749,126.083 177.749 C 96.567 177.749,84.516 177.768,99.305 177.792 M198.542 177.792 C 207.502 177.815,222.165 177.815,231.125 177.792 C 240.085 177.768,232.754 177.748,214.833 177.748 C 196.912 177.748,189.581 177.768,198.542 177.792 M262.110 177.790 C 262.067 177.860,265.512 177.896,269.766 177.872 L 277.499 177.827 277.542 225.413 L 277.584 273.000 277.584 225.375 L 277.583 177.750 269.886 177.707 C 265.652 177.683,262.153 177.720,262.110 177.790 M280.244 177.875 C 280.200 177.990,280.184 199.458,280.208 225.583 L 280.251 273.083 280.292 225.459 L 280.333 177.834 336.042 177.792 L 391.750 177.750 336.036 177.708 C 291.588 177.675,280.307 177.709,280.244 177.875 M277.541 326.198 C 277.518 354.037,277.556 376.848,277.625 376.891 C 277.738 376.961,277.738 342.995,277.624 293.917 C 277.601 283.833,277.563 298.360,277.541 326.198 M280.167 325.867 C 280.121 353.431,280.140 375.927,280.209 375.858 C 280.278 375.789,280.315 353.237,280.292 325.741 L 280.250 275.750 280.167 325.867 M52.658 290.125 L 52.083 290.750 52.708 290.176 C 53.290 289.641,53.410 289.500,53.283 289.500 C 53.255 289.500,52.974 289.781,52.658 290.125 M57.909 304.042 L 57.250 304.750 57.958 304.091 C 58.617 303.478,58.743 303.333,58.617 303.333 C 58.590 303.333,58.271 303.652,57.909 304.042 " stroke="none" fill="#34b4c4" fill-rule="evenodd"></path></g></svg>